<?xml version="1.0" encoding="UTF-8" standalone="no"?>
<!DOCTYPE svg PUBLIC "-//W3C//DTD SVG 1.1//EN"
 "http://www.w3.org/Graphics/SVG/1.1/DTD/svg11.dtd">
<!-- Generated by graphviz version 2.38.0 (20140413.2041)
 -->
<!-- Title: %3 Pages: 1 -->
<svg width="69pt" height="188pt"
 viewBox="0.00 0.00 69.09 188.00" xmlns="http://www.w3.org/2000/svg" xmlns:xlink="http://www.w3.org/1999/xlink">
<g id="graph0" class="graph" transform="scale(1 1) rotate(0) translate(4 184)">
<title>%3</title>
<polygon fill="white" stroke="none" points="-4,4 -4,-184 65.0946,-184 65.0946,4 -4,4"/>
<!-- a -->
<g id="node1" class="node"><title>a</title>
<ellipse fill="none" stroke="black" cx="30.5473" cy="-162" rx="27" ry="18"/>
<text text-anchor="middle" x="30.5473" y="-158.3" font-family="Times New Roman,serif" font-size="14.00">a</text>
</g>
<!-- b -->
<g id="node2" class="node"><title>b</title>
<ellipse fill="none" stroke="black" cx="30.5473" cy="-90" rx="27" ry="18"/>
<text text-anchor="middle" x="30.5473" y="-86.3" font-family="Times New Roman,serif" font-size="14.00">b</text>
</g>
<!-- a&#45;&gt;b -->
<g id="edge1" class="edge"><title>a&#45;&gt;b</title>
<path fill="none" stroke="black" d="M30.5473,-143.697C30.5473,-135.983 30.5473,-126.712 30.5473,-118.112"/>
<polygon fill="black" stroke="black" points="34.0474,-118.104 30.5473,-108.104 27.0474,-118.104 34.0474,-118.104"/>
</g>
<!-- SKIP -->
<g id="node3" class="node"><title>SKIP</title>
<ellipse fill="blue" stroke="black" cx="30.5473" cy="-18" rx="30.5947" ry="18"/>
<text text-anchor="middle" x="30.5473" y="-14.3" font-family="Times New Roman,serif" font-size="14.00">SKIP</text>
</g>
<!-- b&#45;&gt;SKIP -->
<g id="edge2" class="edge"><title>b&#45;&gt;SKIP</title>
<path fill="none" stroke="black" d="M30.5473,-71.6966C30.5473,-63.9827 30.5473,-54.7125 30.5473,-46.1124"/>
<polygon fill="black" stroke="black" points="34.0474,-46.1043 30.5473,-36.1043 27.0474,-46.1044 34.0474,-46.1043"/>
</g>
</g>
</svg>
